/* XPM */
static char * ellipseOp_xpm[] = {
"40 40 2 1",
" 	c #FFFFFFFFFFFF",
".	c #000000000000",
"                                        ",
"                                        ",
"                                        ",
"                                        ",
"                                        ",
"                                        ",
"                                        ",
"                                        ",
"                                        ",
"                                        ",
"                .......                 ",
"             ...       ...              ",
"           ..             ..            ",
"          .                 .           ",
"         .                   .          ",
"        .                     .         ",
"       .                       .        ",
"       .                       .        ",
"      .                         .       ",
"      .                         .       ",
"      .                         .       ",
"      .                         .       ",
"       .                       .        ",
"       .                       .        ",
"        .                     .         ",
"         .                   .          ",
"          .                 .           ",
"           ..             ..            ",
"             ...       ...              ",
"                .......                 ",
"                                        ",
"                                        ",
"                                        ",
"                                        ",
"                                        ",
"                                        ",
"                                        ",
"                                        ",
"                                        ",
"                                        "};
