/* XPM */
static char * gradientFillOp_xpm[] = {
"40 40 28 1",
" 	c white",
".	c black",
"X	c #E38D2CB23CF3",
"o	c #D34C41033CF3",
"O	c #C30B51443CF3",
"+	c #B6DA659538E3",
"@	c #A69979E738E3",
"#	c #96588A2838E3",
"$	c #86179E7938E3",
"%	c #79E7AEBA34D3",
"&	c #69A6C30B34D3",
"*	c #5965D34C34D3",
"=	c #4924E79D34D3",
"-	c #3CF3FBEE34D3",
";	c #F3CE1C713CF3",
":	c #8E38924838E3",
">	c #FBEE14514103",
",	c #7DF7A69938E3",
"<	c #AEBA6DB638E3",
"1	c #71C6BAEA34D3",
"2	c #EBAD24923CF3",
"3	c #DB6C38E33CF3",
"4	c #CB2B49243CF3",
"5	c #9E79820738E3",
"6	c #6185CB2B34D3",
"7	c #BAEA5D753CF3",
"8	c #5144DF7D34D3",
"9	c #4103EFBE34D3",
"                                        ",
"                                        ",
"                                        ",
"                                        ",
"                                        ",
"                                        ",
"                                        ",
"             ..                         ",
"             . ..                       ",
"            .    ..                     ",
"            .      ..                   ",
"           ..        ..                 ",
"           .           ..               ",
"          .             ..              ",
"          .XoO+@#$%&*=-.  $             ",
"         ..XoO+@#$%&*=.   $             ",
"         .;XoO+@#$%&*=.  :$             ",
"        .>;XoO+@#$%&*.   :$             ",
"        .>;XoO+@#$%&*.    $$            ",
"       .>>;XoO+@#$%&.     $$            ",
"       ..>;XoO+@#$%&.     $$,           ",
"        ...XoO+@#$%.       $,           ",
"          ..oO+@#$%.       $            ",
"            ...@#$.        $    >       ",
"              ..#..       $$   >        ",
"                ..        :$   >        ",
"                    :     :$$  >        ",
"                    :::  #:$$     ::    ",
"                          :$$ :         ",
"                     <   #:$$, 1   :    ",
"     >   >>;2 3oo4O  <<@5#:$$,%1&66     ",
">>>>>>>>>>>;2X3oo4O7+<<@5#:$$,%1&66*8=9-",
">>>>>>>>>>>;2X3oo4O7+<<@5#:$$,%1&66*8=9-",
">>>>>>>>>>>;2X3oo4O7+<<@5#:$$,%1&66*8=9-",
">>>>>>>>>>>;2X3oo4O7+<<@5#:$$,%1&66*8=9-",
">>>>>>>>>>>;2X3oo4O7+<<@5#:$$,%1&66*8=9-",
">>>>>>>>>>>;2X3oo4O7+<<@5#:$$$,%1&66*8=9",
">>>>>>>>>>>>;2X3oo4O7+<<@5#:$$,%1&66*8=9",
">>>>>>>>>>>>;2X3oo4O7+<<@5#:$$,%1&66*8=9",
">>>>>>>>>>>>;2X3oo4O7+<<@5#:$$,%1&66*8=9"};
