<?xml version="1.0" encoding="UTF-8" standalone="no"?>
<svg
   xmlns:dc="http://purl.org/dc/elements/1.1/"
   xmlns:cc="http://creativecommons.org/ns#"
   xmlns:rdf="http://www.w3.org/1999/02/22-rdf-syntax-ns#"
   xmlns:svg="http://www.w3.org/2000/svg"
   xmlns="http://www.w3.org/2000/svg"
   xmlns:xlink="http://www.w3.org/1999/xlink"
   xmlns:sodipodi="http://sodipodi.sourceforge.net/DTD/sodipodi-0.dtd"
   xmlns:inkscape="http://www.inkscape.org/namespaces/inkscape"
   height="565.10773"
   width="570.62775"
   inkscape:version="1.0 (4035a4fb49, 2020-05-01)"
   sodipodi:docname="gradientFill.svg"
   xml:space="preserve"
   viewBox="0 0 570.62775 565.10772"
   y="0px"
   x="0px"
   id="Layer_1"
   version="1.1"><metadata
   id="metadata1108"><rdf:RDF><cc:Work
       rdf:about=""><dc:format>image/svg+xml</dc:format><dc:type
         rdf:resource="http://purl.org/dc/dcmitype/StillImage" /><dc:title></dc:title></cc:Work></rdf:RDF></metadata><defs
   id="defs1106"><linearGradient
     inkscape:collect="always"
     id="linearGradient882"><stop
       style="stop-color:#008c00;stop-opacity:1;"
       offset="0"
       id="stop878" /><stop
       style="stop-color:#ff0000;stop-opacity:1;"
       offset="1"
       id="stop880" /></linearGradient><linearGradient
     inkscape:collect="always"
     id="linearGradient874"><stop
       style="stop-color:#008c00;stop-opacity:1;"
       offset="0"
       id="stop870" /><stop
       style="stop-color:#ff0000;stop-opacity:1;"
       offset="1"
       id="stop872" /></linearGradient><linearGradient
     id="linearGradient861"
     inkscape:collect="always"><stop
       id="stop865"
       offset="0"
       style="stop-color:#008c00;stop-opacity:1;" /><stop
       id="stop867"
       offset="1"
       style="stop-color:#ff0000;stop-opacity:1;" /></linearGradient><inkscape:path-effect
     lpeversion="1"
     is_visible="true"
     id="path-effect1793"
     effect="spiro" /><linearGradient
     inkscape:collect="always"
     xlink:href="#linearGradient861"
     id="linearGradient863"
     x1="-8.5529308e-08"
     y1="478.60614"
     x2="238.47852"
     y2="478.60614"
     gradientUnits="userSpaceOnUse" /><linearGradient
     inkscape:collect="always"
     xlink:href="#linearGradient874"
     id="linearGradient876"
     x1="46.756716"
     y1="173.79765"
     x2="284.42028"
     y2="173.79765"
     gradientUnits="userSpaceOnUse" /><linearGradient
     inkscape:collect="always"
     xlink:href="#linearGradient882"
     id="linearGradient884"
     x1="-3.5439288"
     y1="339.26421"
     x2="57.042571"
     y2="339.26421"
     gradientUnits="userSpaceOnUse" /></defs><sodipodi:namedview
   fit-margin-bottom="0"
   fit-margin-right="0"
   fit-margin-left="0"
   fit-margin-top="0"
   inkscape:current-layer="Layer_1"
   inkscape:window-maximized="0"
   inkscape:window-y="81"
   inkscape:window-x="23"
   inkscape:cy="284.17386"
   inkscape:cx="268.89603"
   inkscape:zoom="1.4355469"
   showgrid="false"
   id="namedview1104"
   inkscape:window-height="1110"
   inkscape:window-width="1871"
   inkscape:pageshadow="2"
   inkscape:pageopacity="0"
   guidetolerance="10"
   gridtolerance="10"
   objecttolerance="10"
   borderopacity="1"
   bordercolor="#666666"
   pagecolor="#ffffff"
   inkscape:document-rotation="0" />
<g
   transform="translate(75.433434)"
   id="g1043">
	<path
   id="path1039"
   d="m 5.4163212,366.78408 v 0 c -11.947,-11.947 -11.947,-30.71999 0,-42.66699 l 21.3329998,-21.333 21.333,21.333 c 11.947,11.947 11.947,30.71999 0,42.66699 v 0 c -11.946,11.947 -31.573,11.947 -42.6659998,0"
   style="fill:url(#linearGradient884);fill-opacity:1" />
	<path
   id="path1041"
   d="m 280.362,58.88 c 17.067,17.067 -21.333,81.92 -84.48,145.067 -63.147,63.147 -128,101.547 -145.067,84.48 C 33.748,271.36 72.148,206.507 135.295,143.36 198.442,80.213 263.296,42.667 280.362,58.88"
   style="fill:url(#linearGradient876);fill-opacity:1" />
</g>
<path
   id="path1045"
   d="m 271.31543,203.947 c -63.147,63.147 -128,101.547 -145.067,84.48 l 210.774,210.773 c 17.067,17.067 81.92,-21.333 145.067,-84.48 63.147,-63.147 101.547,-128 84.48,-145.067 L 355.79543,58.88 c 16.214,17.067 -21.333,81.92 -84.48,145.067"
   style="fill:#718395;fill-opacity:1" />
<g
   transform="translate(75.433434)"
   id="g1051">
	<path
   id="path1047"
   d="m 313.642,220.16 90.453,90.453 c 3.413,3.413 9.387,3.413 11.947,0 32.427,-34.987 46.933,-69.12 34.987,-80.213 L 340.096,120.32 c 10.24,10.24 -0.853,40.107 -28.16,71.68 -5.974,8.533 -5.974,20.48 1.706,28.16"
   style="fill:#556080" />
	<path
   id="path1049"
   d="m 155.776,343.04 c -21.333,11.093 -37.547,13.653 -44.373,6.827 l 110.933,110.08 c 6.827,6.827 20.48,1.707 40.96,-10.24 5.12,-2.56 5.973,-9.387 1.707,-13.653 l -89.6,-89.6 c -5.121,-5.121 -12.801,-6.827 -19.627,-3.414"
   style="fill:#556080" />
</g>
<path
   id="path1053"
   d="m 418.08943,470.187 c 20.48,-14.507 41.813,-33.28 64,-55.467 2.56,-2.56 4.267,-4.267 6.827,-6.827 L 278.14243,197.12 c -2.56,2.56 -4.267,4.267 -6.827,6.827 -22.187,22.187 -43.52,40.96 -64,55.467 z"
   style="fill:#95aaba;fill-opacity:1" />
<path
   id="path1055"
   d="m 348.96943,256 c 0,18.773 -15.36,34.133 -34.133,34.133 -18.773,0 -34.133,-15.36 -34.133,-34.133 0,-18.773 15.36,-34.133 34.133,-34.133 18.773,0 34.133,15.36 34.133,34.133"
   style="fill:#3c4c5d;fill-opacity:1" />
<path
   id="path1057"
   d="m 259.36943,0 c -34.987,0 -64,29.013 -64,64 v 95.573 c 5.12,-5.12 10.24,-11.093 15.36,-16.213 0.853,-0.853 0.853,-0.853 1.707,-1.707 V 64 c 0,-25.6 21.333,-46.933 46.933,-46.933 25.6,0 46.933,21.333 46.933,46.933 v 192 h 17.067 V 64 c 0,-34.987 -29.014,-64 -64,-64"
   style="fill:#556080" />



<path
   id="path1065"
   d="m 323.36943,256 h -17.067 V 64 c 0,-25.6 -21.333,-46.933 -46.933,-46.933 -25.6,0 -46.934,21.333 -46.934,46.933 v 87.04 h -17.067 V 64 c 0,-34.987 29.013,-64 64,-64 34.987,0 64,29.013 64,64 v 192 z" />



<g
   transform="translate(75.433434)"
   id="g1073">
</g>
<g
   transform="translate(75.433434)"
   id="g1075">
</g>
<g
   transform="translate(75.433434)"
   id="g1077">
</g>
<g
   transform="translate(75.433434)"
   id="g1079">
</g>
<g
   transform="translate(75.433434)"
   id="g1081">
</g>
<g
   transform="translate(75.433434)"
   id="g1083">
</g>
<g
   transform="translate(75.433434)"
   id="g1085">
</g>
<g
   transform="translate(75.433434)"
   id="g1087">
</g>
<g
   transform="translate(75.433434)"
   id="g1089">
</g>
<g
   transform="translate(75.433434)"
   id="g1091">
</g>
<g
   transform="translate(75.433434)"
   id="g1093">
</g>
<g
   transform="translate(75.433434)"
   id="g1095">
</g>
<g
   transform="translate(75.433434)"
   id="g1097">
</g>
<g
   transform="translate(75.433434)"
   id="g1099">
</g>
<g
   transform="translate(75.433434)"
   id="g1101">
</g>
<path
   inkscape:original-d="M 38.208805,510.28631 C 27.687709,508.93823 17.081064,474.28005 6.5156928,456.27543 -4.0496782,438.2708 32.359947,431.57339 45.280574,419.22088 c 12.920627,-12.35252 -1.411812,-12.10895 -2.119218,-18.16493 -0.707406,-6.05597 27.913982,-0.50926 41.869473,-0.76539 13.955491,-0.25613 29.908571,-2.00759 44.861351,-3.01288 14.95278,-1.0053 26.91233,10.52022 40.367,15.77883 13.45467,5.2586 21.54565,-3.07846 32.31697,-4.61918 10.77132,-1.54073 -12.63092,36.42095 -18.94788,54.62993 -6.31695,18.20898 23.67904,11.23553 35.51705,16.85179 11.83802,5.61626 7.25097,27.21075 10.87496,40.81462 3.62399,13.60388 -38.66762,-1.86334 -58.00293,-2.79651 -19.33531,-0.93317 -19.02012,23.51761 -28.53168,35.27491 -9.51155,11.75731 -36.79012,-2.69514 -55.186686,-4.04421 -18.396564,-1.34908 -12.35226,-23.22587 -18.52989,-34.84031 -6.177629,-11.61443 -21.039192,-2.69316 -31.560289,-4.04124 z"
   inkscape:path-effect="#path-effect1793"
   id="path1791"
   d="m 38.208805,510.28631 c -6.446383,-0.38283 -12.842577,-2.02549 -18.55692,-5.03359 -5.714343,-3.0081 -10.7304341,-7.39934 -14.2508917,-12.8131 -3.5204575,-5.41376 -5.50962024,-11.85408 -5.39641,-18.31083 0.11321024,-6.45675 2.3703692,-12.89789 6.5111095,-17.85336 2.9926175,-3.58144 6.8673222,-6.32382 10.8962122,-8.67978 4.028891,-2.35596 8.253014,-4.36589 12.269939,-6.74219 4.016925,-2.3763 7.866759,-5.16047 10.8047,-8.7869 2.937941,-3.62643 4.912769,-8.18002 4.79403,-12.84568 -0.07833,-3.07786 -1.044284,-6.05204 -1.771549,-9.04377 -0.727266,-2.99174 -1.2154,-6.16711 -0.347669,-9.12116 0.552225,-1.87996 1.643239,-3.58643 3.056637,-4.94345 1.413398,-1.35703 3.142282,-2.36938 4.988681,-3.02514 3.692798,-1.31152 7.77131,-1.18921 11.597691,-0.34324 7.652763,1.69192 14.516004,6.14067 22.226464,7.54644 7.42462,1.35366 15.033071,-0.21198 22.430551,-1.70685 7.39748,-1.49487 15.05913,-2.92339 22.4308,-1.30603 7.15767,1.57041 13.35672,5.85862 19.67874,9.5641 3.161,1.85274 6.41408,3.5859 9.8793,4.77621 3.46522,1.19031 7.16556,1.8261 10.80896,1.43852 5.64007,-0.59999 10.70933,-3.56254 16.04816,-5.47753 2.66942,-0.95749 5.46529,-1.66281 8.30123,-1.65515 2.83593,0.008 5.72835,0.77326 7.96758,2.5135 2.10294,1.63432 3.52873,4.0624 4.14063,6.6545 0.61189,2.59209 0.43889,5.33633 -0.28526,7.89933 -1.4483,5.126 -4.97248,9.39535 -8.70462,13.19594 -3.73214,3.8006 -7.79968,7.34513 -10.77519,11.76324 -1.48776,2.20905 -2.68977,4.63236 -3.33371,7.21668 -0.64393,2.58432 -0.7141,5.3373 0.0103,7.90024 0.93879,3.32157 3.17791,6.18549 5.93307,8.26473 2.75516,2.07924 6.00693,3.42071 9.33483,4.33678 6.65582,1.83213 13.70907,2.04032 20.24915,4.25028 4.14363,1.40017 8.03292,3.60785 11.23368,6.58868 3.20075,2.98084 5.69869,6.74424 7.02617,10.91173 1.32747,4.1675 1.45896,8.73553 0.19636,12.92314 -1.2626,4.1876 -3.94232,7.96447 -7.58125,10.39107 -4.14556,2.76445 -9.31349,3.68206 -14.28911,3.41532 -4.97561,-0.26675 -9.82123,-1.63919 -14.57265,-3.13982 -4.75142,-1.50063 -9.4826,-3.14413 -14.39442,-3.9819 -4.91182,-0.83777 -10.07881,-0.83315 -14.74675,0.90989 -3.60668,1.34676 -6.78771,3.68703 -9.45537,6.4629 -2.66766,2.77588 -4.84682,5.98448 -6.81276,9.29461 -3.93188,6.62026 -7.11899,13.78843 -12.26355,19.5174 -7.15012,7.96236 -18.00007,12.52685 -28.67859,11.82495 -10.67851,-0.7019 -20.925096,-6.73935 -26.508096,-15.86916 -3.485081,-5.69911 -5.133364,-12.29401 -7.432553,-18.56612 -1.149594,-3.13605 -2.478065,-6.22412 -4.264478,-9.04638 -1.786413,-2.82225 -4.049528,-5.38133 -6.832859,-7.22781 -4.487227,-2.97685 -10.027856,-3.92606 -15.410101,-4.0942 -5.382245,-0.16813 -10.774787,0.37218 -16.150188,0.053 z"
   style="fill:url(#linearGradient863);fill-opacity:1;fill-rule:evenodd;stroke:none;stroke-width:1px;stroke-linecap:butt;stroke-linejoin:miter;stroke-opacity:1" /></svg>
