/* XPM */
static char * fillOp_xpm[] = {
"40 40 3 1",
" 	c #FFFFFFFFFFFF",
".	c #000000000000",
"X	c #51445144FFFF",
"                                        ",
"                                        ",
"                                        ",
"                                        ",
"                                        ",
"                                        ",
"                                        ",
"             ..                         ",
"             . ..                       ",
"            .    ..                     ",
"            .      ..                   ",
"           ..        ..                 ",
"           .           ..               ",
"          .             ..              ",
"          .XXXXXXXXXXXX.  X             ",
"         ..XXXXXXXXXXX.   X             ",
"         .XXXXXXXXXXXX.  XX             ",
"        .XXXXXXXXXXXX.   XX             ",
"        .XXXXXXXXXXXX.    XX            ",
"       .XXXXXXXXXXXX.     XX            ",
"       ..XXXXXXXXXXX.     XXX           ",
"        ...XXXXXXXX.       XX           ",
"          ..XXXXXXX.       X            ",
"            ...XXX.        X    X       ",
"              .....       XX   X        ",
"                ..        XX   X        ",
"                    X     XXX  X        ",
"                    XXX  XXXX     XX    ",
"                          XXX X         ",
"                     X   XXXXX X   X    ",
"      X  XXXX XXX X  XXXXXXXXXXXXXX     ",
"XXXXXXXXXXXXXXXXXXXXXXXXXXXXXXXXXXXXXXXX",
"XXXXXXXXXXXXXXXXXXXXXXXXXXXXXXXXXXXXXXXX",
"XXXXXXXXXXXXXXXXXXXXXXXXXXXXXXXXXXXXXXXX",
"XXXXXXXXXXXXXXXXXXXXXXXXXXXXXXXXXXXXXXXX",
"XXXXXXXXXXXXXXXXXXXXXXXXXXXXXXXXXXXXXXXX",
"XXXXXXXXXXXXXXXXXXXXXXXXXXXXXXXXXXXXXXXX",
"XXXXXXXXXXXXXXXXXXXXXXXXXXXXXXXXXXXXXXXX",
"XXXXXXXXXXXXXXXXXXXXXXXXXXXXXXXXXXXXXXXX",
"XXXXXXXXXXXXXXXXXXXXXXXXXXXXXXXXXXXXXXXX"};
