<?xml version="1.0" encoding="UTF-8" standalone="no"?>
<svg
   xmlns:dc="http://purl.org/dc/elements/1.1/"
   xmlns:cc="http://creativecommons.org/ns#"
   xmlns:rdf="http://www.w3.org/1999/02/22-rdf-syntax-ns#"
   xmlns:svg="http://www.w3.org/2000/svg"
   xmlns="http://www.w3.org/2000/svg"
   xmlns:sodipodi="http://sodipodi.sourceforge.net/DTD/sodipodi-0.dtd"
   xmlns:inkscape="http://www.inkscape.org/namespaces/inkscape"
   sodipodi:docname="freehand.svg"
   inkscape:version="1.0 (4035a4fb49, 2020-05-01)"
   id="svg8"
   version="1.1"
   viewBox="0 0 159.76663 147.46851"
   height="147.46851mm"
   width="159.76663mm">
  <sodipodi:namedview
     inkscape:window-maximized="0"
     inkscape:window-y="106"
     inkscape:window-x="417"
     inkscape:window-height="1134"
     inkscape:window-width="1480"
     fit-margin-bottom="0"
     fit-margin-right="0"
     fit-margin-left="0"
     fit-margin-top="0"
     showgrid="false"
     inkscape:document-rotation="0"
     inkscape:current-layer="layer1"
     inkscape:document-units="mm"
     inkscape:cy="374.15253"
     inkscape:cx="-173.52748"
     inkscape:zoom="0.7"
     inkscape:pageshadow="2"
     inkscape:pageopacity="0.0"
     borderopacity="1.0"
     bordercolor="#666666"
     pagecolor="#ffffff"
     id="base" />
  <metadata
     id="metadata5">
    <rdf:RDF>
      <cc:Work
         rdf:about="">
        <dc:format>image/svg+xml</dc:format>
        <dc:type
           rdf:resource="http://purl.org/dc/dcmitype/StillImage" />
        <dc:title></dc:title>
      </cc:Work>
    </rdf:RDF>
  </metadata>
  <g
     transform="translate(-31.327503,-60.687992)"
     id="layer1"
     inkscape:groupmode="layer"
     inkscape:label="Calque 1">
    <g
       transform="translate(15.620494,-71.262423)"
       id="g883"
       style="stroke-width:10;stroke-miterlimit:4;stroke-dasharray:none" />
    <path
       sodipodi:nodetypes="cssssssssssssc"
       style="fill:none;fill-rule:evenodd;stroke:#0000c0;stroke-width:14;stroke-linecap:butt;stroke-linejoin:miter;stroke-miterlimit:4;stroke-dasharray:none;stroke-dashoffset:0;stroke-opacity:1"
       d="m 93.646576,201.15966 c -5.756469,-3.07994 -11.379543,-6.40919 -16.84818,-9.97528 -8.75767,-5.71086 -17.303932,-12.22449 -22.959676,-21.01786 -6.635453,-10.31659 -8.710005,-22.79477 -11.997606,-34.61225 -1.897385,-6.82027 -4.265599,-13.80983 -3.250637,-20.81597 0.507481,-3.50307 1.910416,-6.93809 4.350335,-9.50243 1.21996,-1.28217 2.689047,-2.33446 4.319398,-3.02309 1.630352,-0.68863 3.422334,-1.00868 5.186614,-0.86877 3.147707,0.24961 5.981296,1.90276 8.770578,3.38271 1.39464,0.73998 2.814275,1.44877 4.316656,1.934 1.50238,0.48523 3.098473,0.74224 4.66662,0.5592 1.494267,-0.17442 2.930799,-0.74789 4.180406,-1.58558 1.249606,-0.8377 2.315496,-1.93491 3.183727,-3.1635 1.73646,-2.45717 2.668924,-5.39225 3.305329,-8.333 0.636405,-2.94075 1.002869,-5.938489 1.742485,-8.854993 0.739617,-2.916503 1.887581,-5.798685 3.873627,-8.058916 2.446589,-2.784355 6.01905,-4.421063 9.677349,-5.017112 3.6583,-0.596049 7.413829,-0.221316 11.046049,0.517216 7.26443,1.477065 14.38412,4.413744 21.7864,4.013745 5.37495,-0.290447 10.48175,-2.330175 15.46013,-4.377141 4.97839,-2.046965 10.04559,-4.153392 15.41068,-4.589493 3.9503,-0.3211 7.98695,0.296871 11.61699,1.887713 3.63005,1.590842 6.84061,4.162293 9.09595,7.421352 2.25533,3.25906 3.53521,7.202894 3.51407,11.166169 -0.0211,3.963276 -1.3612,7.925152 -3.83568,11.021112 -3.3035,4.133198 -8.32695,6.496388 -13.33952,8.190668 -5.01257,1.69429 -10.2377,2.87886 -14.93526,5.31388 -5.63888,2.92296 -10.34074,7.63795 -13.19965,13.30957 -2.8589,5.67162 -3.85187,12.27389 -2.73445,18.52625 1.38231,7.73448 5.80921,14.59683 7.82404,22.19113 1.69283,6.38061 1.62026,13.22006 -0.20756,19.56331 -1.82782,6.34326 -5.40579,12.17262 -10.23431,16.67409"
       id="path952"
       inkscape:original-d="m 93.646576,201.15966 c -8.69471,7.6287 -3.184051,-10.47451 -16.84818,-9.97528 -13.664128,0.49924 -15.306185,-14.01164 -22.959676,-21.01786 -7.65349,-7.00622 -7.99814,-23.07457 -11.997606,-34.61225 -3.999467,-11.53769 7.070738,-22.80658 10.60571,-34.21026 3.534973,-11.403686 11.836167,3.91753 17.753854,5.87591 5.917686,1.95837 10.857314,-19.997063 16.285574,-29.995989 5.428258,-9.998928 28.340128,-0.323837 42.509798,-0.486151 14.16967,-0.162314 20.5808,-5.977491 30.87081,-8.966634 10.29,-2.989142 13.59449,20.997828 20.39133,31.496346 6.79685,10.498518 -18.84959,9.003298 -28.27478,13.504548 -9.42519,4.50125 -10.62247,21.22414 -15.9341,31.83582 -5.31164,10.61168 5.21629,14.79435 7.82404,22.19113 2.60775,7.39678 -1.74715,28.6087 -10.44187,36.2374" />
  </g>
</svg>
