/* XPM */
static char * lineOp_xpm[] = {
"40 40 7 1",
" 	c #FFFFFFFFFFFF",
".	c #000000000000",
"X	c #BAEABAEABAEA",
"o	c #DF7D7DF77DF7",
"O	c #F7DEBAEA3CF3",
"+	c #FBEE14514103",
"@	c #E79DBAEA8207",
"                                        ",
".                                       ",
"X..                               ...   ",
"XXX.                             .ooo.  ",
"XXXX..                           .ooo.  ",
"XXXXXX.                         ..oo.   ",
"XXXXXXX..                       .X.o.   ",
"XXXXXXXXX.                     .XXX.    ",
"XXXXXXXXXX..                   ..XX.    ",
"XXXXXXXXXXXX.                 .O...     ",
"XXXXXXXXXXXXX..               .OOO.     ",
"XXXXXXXXXXXXXXX.             .OOO.      ",
"XXXXXXXXXXXXXXXX..           .OOO.      ",
"XXXXXXXXXXXXXXXXXX.         .OOO.       ",
"XXXXXXXXXXXXXXXXXXX.        .OOO.       ",
".XXXXXXXXXXXXXXXXXXX..     .OOO.        ",
"+..XX...XXXXXXXXXXXXXX.    .OOO.        ",
"+++..XXXXXXXXXXXXXXXXXX.. .OOO.         ",
" +++.XXXXXXXXXXXXXXXXXXXX..OOO.         ",
"  +++..XXXXXXXXXXXXXXXXXX.OOO.          ",
"    +++.XXXXXXXXXXXXXXXXX.OOO.          ",
"     +++.XXX..XXXXXXXXXX.OOO...         ",
"      +++...XXXXXXXXXXXX.OOO.XX.        ",
"        +++.XXXXXXXXXXX.OOO.XXXX..      ",
"         +++.XXXXXXXXXX.OOO.XXXXXX.     ",
"          +++..XXXXXXX.OOO.XXXXXXXX..   ",
"            +++.XX..XX.OOO.XXXXXXXXXX.  ",
"             +++..XXX.OOO.XXXXXXXXXXXX. ",
"              +++..XX.@@O.XXXXXXXXXXXXX.",
"                +++.X.@@.XXXXXXXXXXXXXXX",
"                 +++....XXXXXXXXXXXXXXXX",
"                  +++..XXXXXXXXXXXXXXXXX",
"                   +++ .X..XXXXXXXXXXXXX",
"                    +   .XXXXXXXXXXXXXXX",
"                         ..XXXXXXXXXXXXX",
"                           .XXXXXXXXXXXX",
"                            .XX..XXXXXXX",
"                             ..XXXXXXXXX",
"                               .XXXXXXXX",
"                                .XXXXXXX"};
