<?xml version="1.0" standalone="no"?>
<!DOCTYPE svg PUBLIC "-//W3C//DTD SVG 20010904//EN" "http://www.w3.org/TR/2001/REC-SVG-20010904/DTD/svg10.dtd">
<!-- Created using Karbon, part of Calligra: http://www.calligra.org/karbon -->
<svg xmlns="http://www.w3.org/2000/svg" xmlns:xlink="http://www.w3.org/1999/xlink" width="862.759pt" height="814.782pt">
<defs/>
<g id="layer1">
  <path id="path833" transform="matrix(3.54331 0 0 3.54331 42.7364 136.417)" fill="none" stroke="#0000c0" stroke-width="20.00000000000" stroke-linecap="square" stroke-linejoin="miter" stroke-miterlimit="4.00000000000" d="M0 206.391L49.6381 0L112.727 211.96L146.665 83.5317L278.385 174.821"/>
  <path id="shape0" transform="translate(60.7377, 131.596)" fill="none" stroke="#000000" stroke-width="1.41732529000" d="M68.6086 0C69.7333 0 70.8581 0 71.9828 0C73.2636 0 79.6473 21.1614 83.2303 24.7445C139.526 81.0397 124.846 56.2232 124.846 143.968C124.846 164.342 151.775 199.211 142.842 217.077C129.868 243.026 125.3 273.53 112.474 299.184C91.5915 340.948 64.352 363.052 30.3671 397.037C20.4521 406.952 16.2166 423.56 6.74733 433.029C-16.272 456.048 26.9928 493.717 26.9928 515.136"/>
 </g>
</svg>
