/* XPM */
static char * filledPolygonOp_xpm[] = {
"40 40 3 1",
" 	c white",
".	c black",
"X	c #FBEE14514103",
"                                        ",
"                                        ",
"                                        ",
"                                        ",
"                                        ",
"                                        ",
"                                        ",
"                                        ",
"                                        ",
"                                        ",
"                            .           ",
"                          ...           ",
"            .            .XX.           ",
"            ...        ..XXXX.          ",
"           .XXX..     .XXXXXX.          ",
"           .XXXXX.. ..XXXXXXX.          ",
"           .XXXXXXX.XXXXXXXXX.          ",
"          .XXXXXXXXXXXXXXXXXXX.         ",
"          .XXXXXXXXXXXXXXXXXXX.         ",
"         .XXXXXXXXXXXXXXXXXXXX.         ",
"         .XXXXXXXXXXXXXXXXXXXX.         ",
"         .XXXXXXXXXXXXXXXXXXXX.         ",
"        .XXXXXXXXXXXXXXXXXXXXXX.        ",
"        .XXXXXXXXXXXXXXXXXXXXXX.        ",
"        .XXXXXXXXXXXXXXXXXXXXXX.        ",
"       .XXXXXXXXXXXXXXXXXXXXXXX.        ",
"       .......XXXXXXXXXXXXXXXXXX.       ",
"              ............XXXXXX.       ",
"                          .......       ",
"                                        ",
"                                        ",
"                                        ",
"                                        ",
"                                        ",
"                                        ",
"                                        ",
"                                        ",
"                                        ",
"                                        ",
"                                        "};
