/* XPM */
static char * polygonOp_xpm[] = {
"40 40 2 1",
" 	c white",
".	c black",
"                                        ",
"                                        ",
"                                        ",
"                                        ",
"                                        ",
"                                        ",
"                                        ",
"                                        ",
"                                        ",
"                                        ",
"                            .           ",
"                          ...           ",
"            .            .  .           ",
"            ...        ..    .          ",
"           .   ..     .      .          ",
"           .     .. ..       .          ",
"           .       .         .          ",
"          .                   .         ",
"          .                   .         ",
"         .                    .         ",
"         .                    .         ",
"         .                    .         ",
"        .                      .        ",
"        .                      .        ",
"        .                      .        ",
"       .                       .        ",
"       .......                  .       ",
"              ............      .       ",
"                          .......       ",
"                                        ",
"                                        ",
"                                        ",
"                                        ",
"                                        ",
"                                        ",
"                                        ",
"                                        ",
"                                        ",
"                                        ",
"                                        "};
