/* XPM */
static char * filledBoxOp_xpm[] = {
"40 40 3 1",
" 	c white",
".	c black",
"X	c #FBEE14514103",
"                                        ",
"                                        ",
"                                        ",
"                                        ",
"                                        ",
"                                        ",
"                                        ",
"                                        ",
"                                        ",
"                                        ",
"                                        ",
"         .......................        ",
"         .......................        ",
"         ..XXXXXXXXXXXXXXXXXXX..        ",
"         ..XXXXXXXXXXXXXXXXXXX..        ",
"         ..XXXXXXXXXXXXXXXXXXX..        ",
"         ..XXXXXXXXXXXXXXXXXXX..        ",
"         ..XXXXXXXXXXXXXXXXXXX..        ",
"         ..XXXXXXXXXXXXXXXXXXX..        ",
"         ..XXXXXXXXXXXXXXXXXXX..        ",
"         ..XXXXXXXXXXXXXXXXXXX..        ",
"         ..XXXXXXXXXXXXXXXXXXX..        ",
"         ..XXXXXXXXXXXXXXXXXXX..        ",
"         ..XXXXXXXXXXXXXXXXXXX..        ",
"         ..XXXXXXXXXXXXXXXXXXX..        ",
"         ..XXXXXXXXXXXXXXXXXXX..        ",
"         ..XXXXXXXXXXXXXXXXXXX..        ",
"         .......................        ",
"         .......................        ",
"                                        ",
"                                        ",
"                                        ",
"                                        ",
"                                        ",
"                                        ",
"                                        ",
"                                        ",
"                                        ",
"                                        ",
"                                        "};
