/* XPM */
static char * selectBoxOp_xpm[] = {
"40 40 2 1",
" 	c #51445144FFFF",
".	c white",
"                                        ",
"                                        ",
"                                        ",
"                                        ",
"                                        ",
"     ..  ..  ..  ..  ..  ..             ",
"     .                    .             ",
"                                        ",
"                                        ",
"     .                    .             ",
"     .                    .             ",
"                                        ",
"                                        ",
"     .                    .             ",
"     .                    .             ",
"                                        ",
"                                        ",
"     .                   .              ",
"     ..  ..  ..  ..  ..  ..             ",
"                         ...            ",
"                         ....           ",
"                         .....          ",
"                         ......         ",
"                         .......        ",
"                         ........       ",
"                         .....          ",
"                         .. ..          ",
"                         .   ..         ",
"                             ..         ",
"                              ..        ",
"                              ..        ",
"                                        ",
"                                        ",
"                                        ",
"                                        ",
"                                        ",
"                                        ",
"                                        ",
"                                        ",
"                                        "};
