/* XPM */
static char * selectEllipseOp_xpm[] = {
"40 40 2 1",
" 	c #51445144FFFF",
".	c white",
"                                        ",
"                                        ",
"                                        ",
"                                        ",
"                                        ",
"                                        ",
"                                        ",
"                                        ",
"               .  .  .. ..              ",
"            .               .           ",
"          .                   .         ",
"                                .       ",
"        .                        .      ",
"       .                                ",
"      .                                 ",
"      .                           .     ",
"                                  .     ",
"                                        ",
"       .                         .      ",
"        .                       .       ",
"           .                            ",
"            .                ..         ",
"               ..  ..  ..  .            ",
"                        .               ",
"                        ..              ",
"                        ...             ",
"                        ....            ",
"                        .....           ",
"                        ......          ",
"                        .......         ",
"                        ........        ",
"                        .....           ",
"                        .. ..           ",
"                        .   ..          ",
"                            ..          ",
"                             ..         ",
"                             ..         ",
"                                        ",
"                                        ",
"                                        "};
