/* XPM */
static char * sprayOp_xpm[] = {
"40 40 5 1",
" 	c #FFFFFFFFFFFF",
".	c #75D675D675D6",
"X	c #000000000000",
"o	c #CB2BC71BC71B",
"O	c #51445144FFFF",
"                                        ",
"                                        ",
"                                        ",
"                                        ",
"                                        ",
"                   ...........          ",
"                ..Xo.o.oo     ...     ..",
"               .XXO.O.OOOOOOOO   . X..oo",
"               ....O.OOOOOOOOO...XXooooo",
"               .ooo...........oooXo.oooo",
"               .oooooooooooooooo..oooooo",
"                .oooooooooooooooo.o.oooo",
"                .ooooooooooooooo.ooooooo",
"                .o.ooooooooooo.ooo.ooooo",
"                 .oo.ooooooooooooooooooo",
"                 XoXo.ooooo.oooooooooooo",
"                  XXoo.o.ooooooooooooooo",
"                ..ooXXooooooooooooooo.o.",
"              ..   ooooooooooooooo.o.o.o",
"             .    ooooooooooooooo.o.oXX.",
"           .. X ooooooooooooo.o.ooXX.   ",
"          X   o.oooooo.o.o.o.oXXX.      ",
"         .oXoooXooo.o.o.ooXXX.          ",
"         .ooXoo.o..o.oXXX.              ",
"         .ooXo.X.oXXX.                  ",
"OO OO O O .oXoXXX.                      ",
"     O O   X..                          ",
"  O O   O                               ",
"   O O O                                ",
"  O  O                                  ",
"O  O                                    ",
"  O O                                   ",
"   O                                    ",
"                                        ",
"                                        ",
"                                        ",
"                                        ",
"                                        ",
"                                        ",
"                                        "};
