/* XPM */
static char * textOp_xpm[] = {
"40 40 3 1",
" 	c #FFFFFFFFFFFF",
".	c #000000000000",
"X	c #F7DEBAEA3CF3",
"                                  .XXXXX",
"                                 .XXXXXX",
"                                .XXXXXXX",
"                               .XXXXXXX.",
"                               .XXXXXX. ",
"                              .XXXXXX.  ",
"                              .XXXXX.   ",
"                          .....XXX..    ",
"                         .........      ",
"                        ........        ",
"                       ...  ....        ",
"                      ....   ...        ",
"                      ...    ..         ",
"                      ..  ....          ",
"                     ..  ....           ",
"                     .  ....            ",
"                    .  ....             ",
"               .   .  .                 ",
"              ... .  .                  ",
"              ...   .                   ",
"             ..... .                    ",
"            ......                      ",
"            . ....                      ",
"           ..  ...                      ",
"          ..   ...                      ",
"          .    ....                     ",
"         ..    ....                     ",
"         .     ....                     ",
"        ..      ...                     ",
"       .............                    ",
"       .        ....                    ",
"      ..        ....                    ",
"      .          ...                    ",
"     ..          ....                   ",
"   .....       .......                  ",
"                                        ",
"                                        ",
"                                        ",
"                                        ",
"                                        "};
